<svg width="570" height="503" viewBox="0 0 570 503" fill="none" xmlns="http://www.w3.org/2000/svg">
<rect width="570" height="503" rx="4" fill="#E9FBFF"/>
<mask id="mask0" mask-type="alpha" maskUnits="userSpaceOnUse" x="0" y="0" width="570" height="503">
<rect width="570" height="503" rx="4" fill="white"/>
</mask>
<g mask="url(#mask0)">
<path d="M307.8 39.8558H115V48.2935H307.8V39.8558Z" fill="#D4F8FF"/>
<path d="M272.995 55.8873H115V64.114H272.995V55.8873Z" fill="#D4F8FF"/>
<path d="M293.667 71.4969H115V79.7236H293.667V71.4969Z" fill="#D4F8FF"/>
<path d="M293.667 87.3175H115V95.5442H293.667V87.3175Z" fill="#D4F8FF"/>
</g>
<path d="M568.858 385.351C504.472 374.716 401.043 367.888 284.486 367.888C167.815 367.888 64.3861 374.828 0 385.351V436.507V476.358H569.201V385.351H568.858Z" fill="#CAFBEB"/>
<path d="M568.858 385.351C561.21 384.119 552.99 382.888 544.314 381.769C544.542 382.776 544.656 383.672 544.656 384.679C544.656 417.478 428.213 444.119 284.715 444.119C141.216 444.119 24.6585 417.478 24.6585 384.679C24.6585 383.672 24.7727 382.664 25.001 381.769C16.0965 382.888 7.76287 384.119 0 385.463V436.619V476.47H569.201V385.463H568.858V385.351Z" fill="white"/>
<path d="M150.463 373.149L131.284 409.642L131.969 415.127L416.683 417.59V410.313L396.819 372.478L150.463 373.149Z" fill="#414074"/>
<path d="M131.284 409.642L131.969 415.127L416.683 417.59V410.313L131.284 409.642Z" fill="#2D2D51"/>
<path d="M142.357 187.103L404.377 184.623C409.689 184.572 413.888 189.109 413.429 194.401L399.945 349.652C399.535 354.371 395.538 357.964 390.803 357.872L155.946 353.274C151.242 353.182 147.403 349.483 147.136 344.786L137.905 182.066" fill="#101344"/>
<path d="M138.423 181.956C138.382 181.955 138.342 181.96 138.302 181.97C138.072 182.026 137.915 182.239 137.929 182.475L147.175 339.906C147.42 344.075 150.83 347.354 155.005 347.436L391.76 352.07C395.96 352.153 399.508 348.972 399.884 344.788L413.51 193.165C413.928 188.512 410.288 184.493 405.617 184.449L138.423 181.956Z" fill="#101345"/>
<path d="M148.522 188.56L403.669 190.798L389.742 345.612L157.541 341.134L148.522 188.56Z" fill="#404269"/>
<g opacity="0.5">
<path opacity="0.5" d="M382.55 215.425H200.921V336.097H382.55V215.425Z" fill="white" stroke="#4FFEB7" stroke-width="0.8792" stroke-miterlimit="10"/>
<path opacity="0.5" d="M215.648 224.94H206.287V228.97H215.648V224.94Z" fill="#4FFEB7"/>
<path opacity="0.5" d="M215.648 232.552H206.287V236.582H215.648V232.552Z" fill="#4FFEB7"/>
<path opacity="0.5" d="M215.648 240.276H206.287V244.306H215.648V240.276Z" fill="#4FFEB7"/>
<path opacity="0.5" d="M215.648 247.888H206.287V251.918H215.648V247.888Z" fill="#4FFEB7"/>
<path opacity="0.5" d="M215.648 255.612H206.287V259.642H215.648V255.612Z" fill="#4FFEB7"/>
<path opacity="0.5" d="M215.648 263.224H206.287V267.254H215.648V263.224Z" fill="#4FFEB7"/>
<path opacity="0.5" d="M215.648 270.836H206.287V274.866H215.648V270.836Z" fill="#4FFEB7"/>
<path opacity="0.5" d="M215.648 278.56H206.287V282.59H215.648V278.56Z" fill="#4FFEB7"/>
<path opacity="0.5" d="M215.648 286.172H206.287V290.202H215.648V286.172Z" fill="#4FFEB7"/>
<path opacity="0.5" d="M215.648 293.784H206.287V297.813H215.648V293.784Z" fill="#4FFEB7"/>
<path opacity="0.5" d="M215.648 301.508H206.287V305.537H215.648V301.508Z" fill="#4FFEB7"/>
<path opacity="0.5" d="M215.648 309.119H206.287V313.149H215.648V309.119Z" fill="#4FFEB7"/>
<path opacity="0.5" d="M215.648 316.843H206.287V320.873H215.648V316.843Z" fill="#4FFEB7"/>
<path opacity="0.5" d="M215.648 324.455H206.287V328.485H215.648V324.455Z" fill="#4FFEB7"/>
<path opacity="0.5" d="M254.12 224.94H237.681V228.97H254.12V224.94Z" fill="#00A5FF"/>
<path opacity="0.5" d="M335.858 224.94H258.458V228.97H335.858V224.94Z" fill="#4FFEB7"/>
<path opacity="0.5" d="M251.837 232.552H231.859V236.582H251.837V232.552Z" fill="#00A5FF"/>
<path opacity="0.5" d="M343.279 232.552H256.746V236.582H343.279V232.552Z" fill="#4FFEB7"/>
<path opacity="0.5" d="M280.148 240.276H251.951V244.306H280.148V240.276Z" fill="#00A5FF"/>
<path opacity="0.5" d="M352.64 240.276H284.144V244.306H352.64V240.276Z" fill="#4FFEB7"/>
<path opacity="0.5" d="M293.733 247.888H266.677V251.918H293.733V247.888Z" fill="#00A5FF"/>
<path opacity="0.5" d="M367.481 247.888H298.871V251.918H367.481V247.888Z" fill="#4FFEB7"/>
<path opacity="0.5" d="M259.257 255.612H239.85V259.642H259.257V255.612Z" fill="#00A5FF"/>
<path opacity="0.5" d="M342.594 255.612H264.052V259.642H342.594V255.612Z" fill="#4FFEB7"/>
<path opacity="0.5" d="M248.069 263.224H231.63V267.254H248.069V263.224Z" fill="#00A5FF"/>
<path opacity="0.5" d="M335.858 263.224H252.407V267.254H335.858V263.224Z" fill="#4FFEB7"/>
<path opacity="0.5" d="M293.847 270.836H269.76V274.866H293.847V270.836Z" fill="#00A5FF"/>
<path opacity="0.5" d="M363.485 270.836H299.327V274.866H363.485V270.836Z" fill="#4FFEB7"/>
<path opacity="0.5" d="M269.417 278.56H241.22V282.59H269.417V278.56Z" fill="#00A5FF"/>
<path opacity="0.5" d="M349.329 278.56H274.098V282.59H349.329V278.56Z" fill="#4FFEB7"/>
<path opacity="0.5" d="M305.949 286.172H254.234V290.202H305.949V286.172Z" fill="#00A5FF"/>
<path opacity="0.5" d="M373.874 286.172H310.743V290.202H373.874V286.172Z" fill="#4FFEB7"/>
<path opacity="0.5" d="M289.509 293.784H251.266V297.813H289.509V293.784Z" fill="#00A5FF"/>
<path opacity="0.5" d="M358.805 293.784H296.017V297.813H358.805V293.784Z" fill="#4FFEB7"/>
<path opacity="0.5" d="M278.892 301.508H241.22V305.537H278.892V301.508Z" fill="#00A5FF"/>
<path opacity="0.5" d="M351.955 301.508H283.459V305.537H351.955V301.508Z" fill="#4FFEB7"/>
<path opacity="0.5" d="M265.536 309.119H239.622V313.149H265.536V309.119Z" fill="#00A5FF"/>
<path opacity="0.5" d="M341.909 309.119H271.244V313.149H341.909V309.119Z" fill="#4FFEB7"/>
<path opacity="0.5" d="M256.86 316.843H232.201V320.873H256.86V316.843Z" fill="#00A5FF"/>
<path opacity="0.5" d="M356.749 316.843H261.083V320.873H356.749V316.843Z" fill="#4FFEB7"/>
<path opacity="0.5" d="M301.61 324.455H273.413V328.485H301.61V324.455Z" fill="#00A5FF"/>
<path opacity="0.5" d="M374.216 324.455H306.976V328.485H374.216V324.455Z" fill="#4FFEB7"/>
<path opacity="0.5" d="M382.55 215.76H200.921V220.574H382.55V215.76Z" fill="#4FFEB7" stroke="#4FFEB7" stroke-width="0.1755" stroke-miterlimit="10"/>
</g>
<path d="M344.877 200.873H163.249V321.545H344.877V200.873Z" fill="#101345"/>
<g opacity="0.5">
<path opacity="0.5" d="M177.975 210.388H168.614V214.418H177.975V210.388Z" fill="#4FFEB7"/>
<path opacity="0.5" d="M177.975 218H168.614V222.03H177.975V218Z" fill="#4FFEB7"/>
<path opacity="0.5" d="M177.975 225.724H168.614V229.754H177.975V225.724Z" fill="#4FFEB7"/>
<path opacity="0.5" d="M177.975 233.336H168.614V237.366H177.975V233.336Z" fill="#4FFEB7"/>
<path opacity="0.5" d="M177.975 241.06H168.614V245.09H177.975V241.06Z" fill="#4FFEB7"/>
<path opacity="0.5" d="M177.975 248.672H168.614V252.702H177.975V248.672Z" fill="#4FFEB7"/>
<path opacity="0.5" d="M177.975 256.284H168.614V260.313H177.975V256.284Z" fill="#4FFEB7"/>
<path opacity="0.5" d="M177.975 264.007H168.614V268.037H177.975V264.007Z" fill="#4FFEB7"/>
<path opacity="0.5" d="M177.975 271.619H168.614V275.649H177.975V271.619Z" fill="#4FFEB7"/>
<path opacity="0.5" d="M177.975 279.231H168.614V283.261H177.975V279.231Z" fill="#4FFEB7"/>
<path opacity="0.5" d="M177.975 286.955H168.614V290.985H177.975V286.955Z" fill="#4FFEB7"/>
<path opacity="0.5" d="M177.975 294.567H168.614V298.597H177.975V294.567Z" fill="#4FFEB7"/>
<path opacity="0.5" d="M177.975 302.291H168.614V306.321H177.975V302.291Z" fill="#4FFEB7"/>
<path opacity="0.5" d="M177.975 309.903H168.614V313.933H177.975V309.903Z" fill="#4FFEB7"/>
<path opacity="0.5" d="M216.447 210.388H200.008V214.418H216.447V210.388Z" fill="#00A5FF"/>
<path opacity="0.5" d="M298.186 210.388H220.785V214.418H298.186V210.388Z" fill="#4FFEB7"/>
<path opacity="0.5" d="M214.164 218H194.186V222.03H214.164V218Z" fill="#00A5FF"/>
<path opacity="0.5" d="M305.606 218H219.073V222.03H305.606V218Z" fill="#4FFEB7"/>
<path opacity="0.5" d="M242.476 225.724H214.278V229.754H242.476V225.724Z" fill="#00A5FF"/>
<path opacity="0.5" d="M314.967 225.724H246.471V229.754H314.967V225.724Z" fill="#4FFEB7"/>
<path opacity="0.5" d="M256.061 233.336H229.005V237.366H256.061V233.336Z" fill="#00A5FF"/>
<path opacity="0.5" d="M329.808 233.336H261.198V237.366H329.808V233.336Z" fill="#4FFEB7"/>
<path opacity="0.5" d="M221.584 241.06H202.177V245.09H221.584V241.06Z" fill="#00A5FF"/>
<path opacity="0.5" d="M304.921 241.06H226.379V245.09H304.921V241.06Z" fill="#4FFEB7"/>
<path opacity="0.5" d="M210.397 248.672H193.958V252.702H210.397V248.672Z" fill="#00A5FF"/>
<path opacity="0.5" d="M298.185 248.672H214.735V252.702H298.185V248.672Z" fill="#4FFEB7"/>
<path opacity="0.5" d="M256.175 256.284H232.087V260.313H256.175V256.284Z" fill="#00A5FF"/>
<path opacity="0.5" d="M325.812 256.284H261.654V260.313H325.812V256.284Z" fill="#4FFEB7"/>
<path opacity="0.5" d="M231.744 264.007H203.547V268.037H231.744V264.007Z" fill="#00A5FF"/>
<path opacity="0.5" d="M311.656 264.007H236.425V268.037H311.656V264.007Z" fill="#4FFEB7"/>
<path opacity="0.5" d="M268.275 271.619H216.561V275.649H268.275V271.619Z" fill="#00A5FF"/>
<path opacity="0.5" d="M336.201 271.619H273.07V275.649H336.201V271.619Z" fill="#4FFEB7"/>
<path opacity="0.5" d="M251.837 279.231H213.593V283.261H251.837V279.231Z" fill="#00A5FF"/>
<path opacity="0.5" d="M321.132 279.231H258.344V283.261H321.132V279.231Z" fill="#4FFEB7"/>
<path opacity="0.5" d="M241.22 286.955H203.547V290.985H241.22V286.955Z" fill="#00A5FF"/>
<path opacity="0.5" d="M314.282 286.955H245.786V290.985H314.282V286.955Z" fill="#4FFEB7"/>
<path opacity="0.5" d="M227.863 294.567H201.949V298.597H227.863V294.567Z" fill="#00A5FF"/>
<path opacity="0.5" d="M304.236 294.567H233.571V298.597H304.236V294.567Z" fill="#4FFEB7"/>
<path opacity="0.5" d="M219.187 302.291H194.528V306.321H219.187V302.291Z" fill="#00A5FF"/>
<path opacity="0.5" d="M319.077 302.291H223.411V306.321H319.077V302.291Z" fill="#4FFEB7"/>
<path opacity="0.5" d="M263.937 309.903H235.74V313.933H263.937V309.903Z" fill="#00A5FF"/>
<path opacity="0.5" d="M336.543 309.903H269.303V313.933H336.543V309.903Z" fill="#4FFEB7"/>
<path opacity="0.5" d="M344.877 201.208H163.249V206.021H344.877V201.208Z" fill="#4FFEB7" stroke="#4FFEB7" stroke-width="0.1755" stroke-miterlimit="10"/>
</g>
<path fill-rule="evenodd" clip-rule="evenodd" d="M231.861 226.106C232.89 215.979 234.598 208.261 234.598 208.261C244.759 167.963 292.021 180.388 297.729 187.104C303.437 193.821 292.021 265.687 292.021 265.687L290.765 300.388L257.773 297.142L255.376 272.851C238.495 276.581 232.715 263.361 231.411 247.928L231.402 248.112L225.693 243.857C224.066 242.645 223.605 240.407 224.619 238.65L231.861 226.106Z" fill="white"/>
<path d="M236.1 251.2C236.1 251.2 235.5 255 230.4 255.8" stroke="#101344" stroke-width="1.1031" stroke-miterlimit="10" stroke-linecap="round" stroke-linejoin="round"/>
<path d="M235.877 235.124C240.81 234.518 244.318 230.027 243.712 225.094C243.106 220.161 238.616 216.653 233.683 217.259C228.749 217.865 225.241 222.355 225.847 227.288C226.453 232.222 230.943 235.73 235.877 235.124Z" stroke="#101344" stroke-width="1.5" stroke-miterlimit="10" stroke-linecap="round" stroke-linejoin="round"/>
<path d="M234.2 224.009C234.191 225.109 233.683 226.005 233.083 226C232.483 225.995 231.991 225.091 232 223.991C232.01 222.891 232.517 221.995 233.117 222C233.817 222.006 234.21 222.909 234.2 224.009Z" fill="#101344"/>
<path d="M309.031 188.336C304.008 181.843 297.615 180.276 293.391 180.052C292.706 167.963 274.44 167.291 260.284 169.978C248.583 172.176 237.913 167.163 231.417 162.963C228.271 160.929 223.664 162.34 223.536 166.084C223.152 177.354 229.804 182.739 229.804 182.739C229.242 182.64 228.654 182.42 228.054 182.112C224.052 180.053 219.055 181.541 220.66 185.746C224.788 196.568 235.055 203.112 235.055 203.112C233.799 212.291 240.763 218.672 240.763 218.672L241.562 239.381H245.215C245.215 239.381 244.416 233 247.27 225.388C250.124 217.776 257.43 224.604 256.175 236.918C254.919 249.231 248.069 244.082 248.069 244.082C248.985 251.099 255.903 260.375 259.588 264.889C261.018 266.641 263.173 267.59 265.433 267.59H291.564C321.246 220.239 316.794 198.299 309.031 188.336Z" fill="#101344"/>
<path opacity="0.2" d="M306.781 204.456C303.587 205.929 299.799 205.427 296.695 203.712C288.581 199.391 286.363 190.586 281.486 183.589C277.552 177.888 267.868 175.904 262 180.106" stroke="white" stroke-width="1.5" stroke-miterlimit="10" stroke-linecap="round" stroke-linejoin="round"/>
<path d="M419.081 382.888C419.081 382.888 416.683 389.269 419.994 391.172C423.305 393.187 443.397 392.963 443.968 387.03C444.653 381.097 439.744 374.828 433.693 373.261C427.757 371.694 419.081 382.888 419.081 382.888Z" fill="#414074"/>
<path d="M440.657 377.627C440.885 378.746 440.999 379.978 440.885 381.097C440.315 386.358 423.99 387.142 418.396 385.798C418.053 387.701 418.167 390.052 419.994 391.172C423.305 393.187 443.397 392.963 443.968 387.03C444.31 383.672 442.94 380.201 440.657 377.627Z" fill="#2D2D51"/>
<path d="M155.5 371C159.286 364.939 166 358 178.5 367L172 385C160.5 390.5 151.714 377.061 155.5 371Z" fill="white" stroke="#1D214F" stroke-width="1.5"/>
<path d="M406.409 373.709C406.409 373.709 422.163 364.306 424.446 364.978C426.5 364.5 429 364.5 429 364.5C429 364.5 431.981 364.754 434.036 365.649C436.091 366.545 446.484 370.373 445 372.5C443.402 374.627 434 372 434 372C434 372 441.114 374.604 442.141 375.836C442.141 375.836 443.354 377.5 440.5 377.5C437.646 377.5 432.552 375.836 432.552 375.836C432.552 375.836 423.875 386.918 417.254 386.918C410.633 386.918 406.409 373.709 406.409 373.709Z" fill="white"/>
<path d="M406.409 373.709L406.025 373.065L405.513 373.37L405.695 373.937L406.409 373.709ZM424.446 364.978L424.235 365.697L424.424 365.753L424.616 365.708L424.446 364.978ZM429 364.5L429.064 363.753L429.032 363.75H429V364.5ZM445 372.5L445.6 372.951L445.608 372.94L445.615 372.929L445 372.5ZM434 372L434.202 371.278C433.814 371.169 433.41 371.387 433.286 371.77C433.163 372.153 433.364 372.566 433.742 372.704L434 372ZM442.141 375.836L442.747 375.394L442.733 375.374L442.717 375.355L442.141 375.836ZM432.552 375.836L432.784 375.123L432.285 374.96L431.961 375.373L432.552 375.836ZM406.409 373.709C406.793 374.353 406.793 374.353 406.793 374.353C406.794 374.353 406.794 374.353 406.794 374.353C406.794 374.352 406.795 374.352 406.796 374.351C406.798 374.35 406.801 374.349 406.804 374.346C406.812 374.342 406.823 374.335 406.838 374.327C406.867 374.309 406.911 374.283 406.969 374.249C407.084 374.18 407.254 374.08 407.47 373.953C407.904 373.698 408.526 373.334 409.28 372.9C410.789 372.031 412.823 370.881 414.926 369.752C417.032 368.622 419.195 367.521 420.965 366.746C421.852 366.357 422.623 366.059 423.229 365.879C423.533 365.789 423.778 365.733 423.966 365.708C424.169 365.682 424.241 365.699 424.235 365.697L424.658 364.258C424.366 364.172 424.048 364.184 423.769 364.221C423.475 364.26 423.148 364.338 422.802 364.441C422.11 364.647 421.275 364.973 420.364 365.371C418.538 366.171 416.334 367.294 414.217 368.431C412.096 369.569 410.048 370.727 408.532 371.6C407.773 372.037 407.147 372.403 406.71 372.66C406.492 372.788 406.321 372.889 406.204 372.958C406.146 372.993 406.101 373.019 406.071 373.037C406.056 373.046 406.044 373.053 406.036 373.058C406.033 373.06 406.03 373.062 406.028 373.063C406.027 373.064 406.026 373.064 406.025 373.064C406.025 373.065 406.025 373.065 406.025 373.065C406.025 373.065 406.025 373.065 406.409 373.709ZM424.616 365.708C425.586 365.482 426.679 365.367 427.544 365.308C427.973 365.279 428.34 365.264 428.598 365.257C428.727 365.254 428.829 365.252 428.898 365.251C428.933 365.25 428.959 365.25 428.976 365.25C428.985 365.25 428.991 365.25 428.995 365.25C428.997 365.25 428.998 365.25 428.999 365.25C429 365.25 429 365.25 429 365.25C429 365.25 429 365.25 429 365.25C429 365.25 429 365.25 429 365.25C429 365.25 429 365.25 429 364.5C429 363.75 429 363.75 429 363.75C429 363.75 429 363.75 429 363.75C428.999 363.75 428.999 363.75 428.999 363.75C428.998 363.75 428.998 363.75 428.997 363.75C428.995 363.75 428.993 363.75 428.99 363.75C428.985 363.75 428.977 363.75 428.967 363.75C428.946 363.75 428.917 363.751 428.879 363.751C428.803 363.752 428.694 363.754 428.556 363.758C428.282 363.765 427.895 363.781 427.443 363.811C426.544 363.872 425.36 363.995 424.276 364.247L424.616 365.708ZM429 364.5C428.936 365.247 428.936 365.247 428.936 365.247C428.936 365.247 428.936 365.247 428.936 365.247C428.936 365.247 428.936 365.247 428.936 365.247C428.936 365.247 428.937 365.247 428.937 365.247C428.938 365.247 428.94 365.248 428.942 365.248C428.947 365.248 428.954 365.249 428.965 365.25C428.985 365.252 429.016 365.255 429.056 365.259C429.137 365.267 429.257 365.28 429.408 365.298C429.709 365.335 430.132 365.393 430.618 365.478C431.601 365.65 432.79 365.925 433.736 366.337L434.335 364.962C433.226 364.478 431.898 364.179 430.877 364C430.36 363.91 429.91 363.848 429.588 363.809C429.427 363.79 429.298 363.776 429.208 363.766C429.163 363.762 429.128 363.759 429.103 363.756C429.091 363.755 429.082 363.754 429.075 363.754C429.072 363.753 429.069 363.753 429.067 363.753C429.066 363.753 429.065 363.753 429.065 363.753C429.065 363.753 429.064 363.753 429.064 363.753C429.064 363.753 429.064 363.753 429.064 363.753C429.064 363.753 429.064 363.753 429 364.5ZM433.736 366.337C434.82 366.809 437.859 367.959 440.51 369.284C441.835 369.946 442.992 370.62 443.719 371.232C444.088 371.543 444.283 371.787 444.361 371.952C444.378 371.988 444.387 372.015 444.391 372.032C444.395 372.049 444.394 372.057 444.394 372.057C444.394 372.057 444.394 372.057 444.395 372.056C444.395 372.054 444.395 372.054 444.395 372.053C444.396 372.052 444.394 372.058 444.385 372.071L445.615 372.929C445.986 372.397 445.952 371.81 445.718 371.312C445.503 370.857 445.114 370.446 444.685 370.085C443.816 369.352 442.525 368.614 441.18 367.942C438.491 366.597 435.306 365.385 434.335 364.962L433.736 366.337ZM444.4 372.049C444.329 372.145 444.169 372.269 443.839 372.375C443.515 372.479 443.088 372.545 442.571 372.57C441.539 372.619 440.271 372.499 439.014 372.306C437.765 372.115 436.56 371.857 435.666 371.647C435.219 371.542 434.851 371.449 434.596 371.383C434.468 371.35 434.369 371.323 434.302 371.305C434.268 371.296 434.243 371.289 434.226 371.284C434.217 371.282 434.211 371.28 434.207 371.279C434.205 371.279 434.204 371.278 434.203 371.278C434.202 371.278 434.202 371.278 434.202 371.278C434.202 371.278 434.202 371.278 434.202 371.278C434.202 371.278 434.202 371.278 434 372C433.798 372.722 433.798 372.722 433.798 372.722C433.799 372.722 433.799 372.722 433.799 372.723C433.799 372.723 433.8 372.723 433.801 372.723C433.802 372.723 433.804 372.724 433.806 372.725C433.811 372.726 433.819 372.728 433.828 372.731C433.847 372.736 433.875 372.743 433.91 372.753C433.982 372.772 434.086 372.8 434.218 372.835C434.483 372.904 434.863 372.999 435.322 373.107C436.24 373.323 437.486 373.59 438.787 373.789C440.081 373.987 441.463 374.125 442.643 374.068C443.232 374.04 443.802 373.962 444.298 373.803C444.788 373.646 445.272 373.387 445.6 372.951L444.4 372.049ZM434 372C433.742 372.704 433.742 372.704 433.742 372.704C433.742 372.704 433.742 372.704 433.742 372.704C433.742 372.704 433.743 372.705 433.743 372.705C433.744 372.705 433.745 372.705 433.747 372.706C433.75 372.707 433.755 372.709 433.761 372.711C433.774 372.716 433.794 372.723 433.82 372.733C433.871 372.752 433.947 372.78 434.045 372.817C434.239 372.89 434.519 372.995 434.858 373.126C435.536 373.388 436.45 373.749 437.393 374.147C438.34 374.547 439.305 374.979 440.092 375.384C440.486 375.587 440.825 375.777 441.089 375.948C441.368 376.128 441.512 376.253 441.565 376.316L442.717 375.355C442.513 375.111 442.21 374.885 441.903 374.687C441.582 374.48 441.196 374.265 440.779 374.05C439.943 373.62 438.937 373.171 437.977 372.765C437.014 372.359 436.085 371.992 435.397 371.726C435.053 371.594 434.769 371.486 434.571 371.412C434.472 371.375 434.394 371.346 434.34 371.326C434.314 371.316 434.293 371.309 434.279 371.304C434.273 371.301 434.267 371.299 434.264 371.298C434.262 371.297 434.26 371.297 434.259 371.296C434.259 371.296 434.259 371.296 434.258 371.296C434.258 371.296 434.258 371.296 434.258 371.296C434.258 371.296 434.258 371.296 434 372ZM442.141 375.836C441.535 376.278 441.535 376.277 441.534 376.277C441.534 376.277 441.534 376.277 441.534 376.276C441.534 376.276 441.533 376.276 441.533 376.275C441.533 376.274 441.532 376.274 441.532 376.273C441.531 376.272 441.531 376.272 441.53 376.271C441.53 376.27 441.53 376.271 441.531 376.273C441.534 376.276 441.539 376.284 441.546 376.296C441.561 376.321 441.581 376.357 441.6 376.4C441.619 376.443 441.633 376.484 441.641 376.52C441.645 376.537 441.646 376.55 441.647 376.559C441.647 376.568 441.647 376.572 441.647 376.572C441.652 376.53 441.689 376.534 441.603 376.581C441.474 376.651 441.159 376.75 440.5 376.75V378.25C441.268 378.25 441.872 378.141 442.318 377.899C442.807 377.634 443.076 377.222 443.135 376.764C443.187 376.359 443.065 376.003 442.972 375.792C442.921 375.679 442.869 375.585 442.829 375.518C442.808 375.485 442.79 375.457 442.776 375.436C442.769 375.426 442.763 375.417 442.758 375.41C442.756 375.406 442.754 375.403 442.752 375.401C442.751 375.399 442.75 375.398 442.749 375.397C442.749 375.396 442.748 375.396 442.748 375.395C442.748 375.395 442.748 375.395 442.748 375.395C442.747 375.394 442.747 375.394 442.141 375.836ZM440.5 376.75C439.176 376.75 437.27 376.357 435.641 375.941C434.838 375.736 434.122 375.531 433.607 375.377C433.349 375.3 433.143 375.236 433.001 375.192C432.93 375.169 432.875 375.152 432.838 375.14C432.82 375.134 432.806 375.13 432.797 375.127C432.793 375.126 432.789 375.124 432.787 375.124C432.786 375.123 432.785 375.123 432.785 375.123C432.785 375.123 432.785 375.123 432.784 375.123C432.784 375.123 432.784 375.123 432.784 375.123C432.784 375.123 432.784 375.123 432.552 375.836C432.319 376.549 432.319 376.549 432.319 376.549C432.319 376.549 432.319 376.549 432.319 376.549C432.319 376.549 432.32 376.549 432.32 376.549C432.321 376.549 432.322 376.55 432.323 376.55C432.326 376.551 432.33 376.552 432.335 376.554C432.346 376.557 432.361 376.562 432.38 376.569C432.42 376.581 432.477 376.6 432.551 376.623C432.699 376.669 432.913 376.735 433.177 376.814C433.707 376.973 434.443 377.183 435.27 377.395C436.901 377.811 438.97 378.25 440.5 378.25V376.75ZM432.552 375.836C431.961 375.373 431.961 375.373 431.961 375.373C431.961 375.373 431.961 375.373 431.961 375.374C431.961 375.374 431.96 375.374 431.96 375.375C431.959 375.376 431.958 375.377 431.956 375.38C431.952 375.385 431.946 375.392 431.939 375.402C431.923 375.422 431.899 375.451 431.868 375.491C431.804 375.569 431.71 375.686 431.587 375.835C431.342 376.132 430.982 376.559 430.53 377.071C429.625 378.097 428.351 379.463 426.877 380.826C425.399 382.192 423.737 383.54 422.054 384.542C420.359 385.551 418.714 386.168 417.254 386.168V387.668C419.105 387.668 421.027 386.899 422.821 385.831C424.627 384.755 426.375 383.332 427.895 381.928C429.417 380.52 430.727 379.115 431.655 378.064C432.119 377.537 432.489 377.098 432.744 376.789C432.872 376.635 432.97 376.513 433.037 376.43C433.071 376.388 433.097 376.356 433.114 376.333C433.123 376.322 433.13 376.314 433.134 376.308C433.137 376.305 433.139 376.303 433.14 376.301C433.14 376.3 433.141 376.3 433.141 376.299C433.142 376.299 433.142 376.299 433.142 376.298C433.142 376.298 433.142 376.298 432.552 375.836ZM417.254 386.168C415.861 386.168 414.53 385.474 413.278 384.306C412.028 383.14 410.923 381.56 410 379.942C409.08 378.329 408.359 376.711 407.868 375.492C407.623 374.884 407.435 374.378 407.31 374.025C407.247 373.849 407.2 373.711 407.169 373.618C407.153 373.572 407.142 373.536 407.134 373.513C407.13 373.502 407.127 373.493 407.126 373.487C407.125 373.485 407.124 373.483 407.124 373.482C407.123 373.481 407.123 373.481 407.123 373.48C407.123 373.48 407.123 373.48 407.123 373.48C407.123 373.48 407.123 373.48 406.409 373.709C405.695 373.937 405.695 373.938 405.695 373.938C405.695 373.938 405.695 373.938 405.695 373.939C405.695 373.939 405.695 373.94 405.696 373.941C405.696 373.943 405.697 373.946 405.698 373.95C405.701 373.957 405.704 373.967 405.709 373.98C405.717 374.007 405.73 374.046 405.747 374.096C405.781 374.197 405.831 374.343 405.897 374.528C406.028 374.897 406.223 375.423 406.477 376.053C406.984 377.312 407.733 378.995 408.697 380.685C409.658 382.369 410.85 384.092 412.255 385.402C413.657 386.711 415.337 387.668 417.254 387.668V386.168Z" fill="#101344"/>
<path d="M407.893 368.224C401.843 368.224 372.275 378.746 372.275 378.746C372.275 378.746 348.88 314.91 330.5 297C309.023 282.403 254.462 286.06 226.379 290.873C208.57 293.896 196.812 317.067 191.218 372.701C179.573 366.769 173.98 364.418 168.957 365.649C155.6 368.896 158.911 384.679 158.911 384.679C158.911 384.679 180.943 400.799 189.505 403.261C194.757 404.716 213.911 423.291 223.5 361.5C222.929 376.276 226.379 406.5 223.5 439.5L321 442.5C321 442.5 319.5 384.679 323.5 361.5C333.089 371.575 350.927 408.858 361.773 409.53C370.677 410.09 406.067 399.343 414.629 394.53C423.191 389.828 414.058 368.224 407.893 368.224Z" fill="url(#paint0_linear)" stroke="#1D214F" stroke-width="1.5"/>
<path d="M252 288.5L254.5 278.5C266.9 280.1 285.667 279.167 292.5 278.5L295.5 288.5C277.1 293.3 257.667 290.5 252 288.5Z" fill="url(#paint1_linear)" stroke="#1D214F" stroke-width="1.5"/>
<path d="M360.631 502.328H416.113C423.305 487.888 429.698 472.664 429.127 469.194C423.076 436.843 322.5 431 322.5 431C310.285 434.694 314.625 435.724 301.725 437.179C274.326 440.313 250.5 438.5 223.5 431C221.5 443.821 222.532 452.612 225.5 460L324.671 469.082C338.256 476.806 350.128 490.015 360.631 502.328Z" fill="#101344"/>
<path d="M383.92 491.022C383.92 497.627 378.44 503 371.704 503H207.771C201.036 503 195.556 497.627 195.556 491.022V471.657C195.556 465.052 201.036 459.679 207.771 459.679H371.704C378.44 459.679 383.92 465.052 383.92 471.657V491.022Z" fill="#9AEBE7"/>
<path d="M224.25 350.5C224.25 350.086 223.914 349.75 223.5 349.75C223.086 349.75 222.75 350.086 222.75 350.5H224.25ZM222.75 367C222.75 367.414 223.086 367.75 223.5 367.75C223.914 367.75 224.25 367.414 224.25 367H222.75ZM222.75 350.5V367H224.25V350.5H222.75Z" fill="#1D214F"/>
<path d="M323.75 349C323.75 348.586 323.414 348.25 323 348.25C322.586 348.25 322.25 348.586 322.25 349H323.75ZM322.25 365.5C322.25 365.914 322.586 366.25 323 366.25C323.414 366.25 323.75 365.914 323.75 365.5H322.25ZM322.25 349V365.5H323.75V349H322.25Z" fill="#1D214F"/>
<path d="M198 135.6V194.1C198 202.7 191 209.7 182.4 209.7H47.6C39 209.7 32 202.7 32 194.1V135.6C32 127 39 120 47.6 120H182.4C191 120 198 127 198 135.6Z" fill="white"/>
<path d="M198 135.6V136.9H32V135.6C32 127 39 120 47.6 120H182.4C191 120 198 127 198 135.6Z" fill="url(#paint2_linear)"/>
<path d="M56.3001 131.2C55.4001 132.1 53.8001 132.1 52.9001 131.2C52.0001 130.3 52.0001 128.7 52.9001 127.8C53.8001 126.9 55.4001 126.9 56.3001 127.8C57.3001 128.8 57.3001 130.3 56.3001 131.2Z" fill="#9AEBE7"/>
<path d="M67.5001 131.2C66.6001 132.1 65 132.1 64.1 131.2C63.2 130.3 63.2 128.7 64.1 127.8C65 126.9 66.6001 126.9 67.5001 127.8C68.4001 128.8 68.4001 130.3 67.5001 131.2Z" fill="#9AEBE7"/>
<path d="M78.5999 131.2C77.6999 132.1 76.0999 132.1 75.1999 131.2C74.2999 130.3 74.2999 128.7 75.1999 127.8C76.0999 126.9 77.6999 126.9 78.5999 127.8C79.4999 128.8 79.4999 130.3 78.5999 131.2Z" fill="#9AEBE7"/>
<path d="M96.8 147.7H42.5V194.6H96.8V147.7Z" stroke="#9AEBE7" stroke-width="1.1031" stroke-miterlimit="10" stroke-linecap="round" stroke-linejoin="round" stroke-dasharray="4.41 4.41"/>
<path d="M167.7 147.7H105.2V151H167.7V147.7Z" fill="#ADFEE0"/>
<path d="M153.1 154.5H105.2V157.8H153.1V154.5Z" fill="#ADFEE0"/>
<path d="M176.6 161.3H105.2V164.6H176.6V161.3Z" fill="#ADFEE0"/>
<path d="M166 168H105.2V171.3H166V168Z" fill="#ADFEE0"/>
<defs>
<linearGradient id="paint0_linear" x1="408.808" y1="447.589" x2="408.808" y2="293.279" gradientUnits="userSpaceOnUse">
<stop stop-color="#A7E6F2"/>
<stop offset="1" stop-color="#F3FCFF"/>
</linearGradient>
<linearGradient id="paint1_linear" x1="293.065" y1="290.433" x2="293.065" y2="281.869" gradientUnits="userSpaceOnUse">
<stop stop-color="#DDF6FB"/>
<stop offset="1" stop-color="#F3FCFF"/>
</linearGradient>
<linearGradient id="paint2_linear" x1="32.9856" y1="120.671" x2="124.41" y2="196.653" gradientUnits="userSpaceOnUse">
<stop stop-color="#E9F7F7"/>
<stop offset="1" stop-color="#A1FFDB"/>
</linearGradient>
</defs>
</svg>
