<?xml version="1.0" encoding="utf-8"?>
<!-- Generator: Adobe Illustrator 25.1.0, SVG Export Plug-In . SVG Version: 6.00 Build 0)  -->
<svg version="1.1" xmlns="http://www.w3.org/2000/svg" xmlns:xlink="http://www.w3.org/1999/xlink" x="0px" y="0px"
	 viewBox="0 0 750 500" style="enable-background:new 0 0 750 500;" xml:space="preserve">
<style type="text/css">
	.st0{display:none;}
	.st1{display:inline;fill:#E4EAFE;}
	.st2{fill:none;stroke:#0024A8;stroke-width:1.0658;stroke-miterlimit:10;stroke-dasharray:3.1975;}
	.st3{fill:none;stroke:#0024A8;stroke-width:1.0658;stroke-miterlimit:10;}
	.st4{fill:none;stroke:#0024A8;stroke-width:1.0658;stroke-miterlimit:10;stroke-dasharray:3.1025,3.1025;}
	.st5{fill:none;stroke:#0024A8;stroke-width:1.0658;stroke-miterlimit:10;stroke-dasharray:3.0649,3.0649;}
	.st6{fill:none;stroke:#0024A8;stroke-width:1.0658;stroke-miterlimit:10;stroke-dasharray:3.1998,3.1998;}
	.st7{fill:none;stroke:#0024A8;stroke-width:1.0658;stroke-miterlimit:10;stroke-dasharray:3.2331,3.2331;}
	.st8{fill:none;stroke:#0024A8;stroke-width:1.0658;stroke-miterlimit:10;stroke-dasharray:3.1514,3.1514;}
	.st9{fill:none;stroke:#0024A8;stroke-width:1.0658;stroke-miterlimit:10;stroke-dasharray:3.2597,3.2597;}
	.st10{fill:none;stroke:#0024A8;stroke-width:1.0658;stroke-miterlimit:10;stroke-dasharray:3.11,3.11;}
	.st11{fill:none;stroke:#0024A8;stroke-width:1.0658;stroke-miterlimit:10;stroke-dasharray:3.2422,3.2422;}
	.st12{fill:none;stroke:#0024A8;stroke-width:1.0658;stroke-miterlimit:10;stroke-dasharray:3.2657,3.2657;}
	.st13{fill:none;stroke:#0024A8;stroke-width:1.0658;stroke-miterlimit:10;stroke-dasharray:3.2727,3.2727;}
	.st14{fill:none;stroke:#0024A8;stroke-width:1.0658;stroke-miterlimit:10;stroke-dasharray:3.0887,3.0887;}
	.st15{fill:none;stroke:#0024A8;stroke-width:1.0658;stroke-miterlimit:10;stroke-dasharray:3.2225,3.2225;}
	.st16{fill:none;stroke:#0024A8;stroke-width:1.0658;stroke-miterlimit:10;stroke-dasharray:3.0861,3.0861;}
	.st17{fill:none;stroke:#0024A8;stroke-width:1.0658;stroke-miterlimit:10;stroke-dasharray:3.3234,3.3234;}
	.st18{fill:none;stroke:#0024A8;stroke-width:1.0658;stroke-miterlimit:10;stroke-dasharray:3.0907,3.0907;}
	.st19{fill:none;stroke:#0024A8;stroke-width:1.0658;stroke-miterlimit:10;stroke-dasharray:3.1938,3.1938;}
	.st20{fill:none;stroke:#0024A8;stroke-width:1.0658;stroke-miterlimit:10;stroke-dasharray:3.1642,3.1642;}
	.st21{fill:#4779F6;}
	.st22{fill:#072BDB;}
	.st23{fill:#0024A8;}
	.st24{fill:#054DDD;}
	.st25{fill:#130751;}
	.st26{fill:#B6CEFF;}
	.st27{fill:#E4EAFE;}
	.st28{opacity:0.24;fill:#FFFFFF;}
	.st29{fill:#FCA232;}
	.st30{fill:#F98816;}
	.st31{fill:#FBFFFD;}
	.st32{font-family:'Montserrat-Black';}
	.st33{font-size:28.1078px;}
	.st34{clip-path:url(#SVGID_2_);fill:#FFFFFF;}
	.st35{clip-path:url(#SVGID_2_);}
	.st36{fill:#FFFFFF;}
	.st37{clip-path:url(#SVGID_4_);fill:#FFFFFF;}
	.st38{clip-path:url(#SVGID_4_);}
	.st39{opacity:0.51;}
	.st40{fill:#FFB564;}
	.st41{clip-path:url(#SVGID_6_);fill:#B6CEFF;}
	.st42{clip-path:url(#SVGID_6_);fill:#FFFFFF;}
</style>
<g id="BACKGROUND" class="st0">
	<rect class="st1" width="750" height="500"/>
</g>
<g id="OBJECTS">
	<g>
		<polyline class="st2" points="578.22,76.42 578.22,36.92 184.41,36.92 184.41,54.5 184.41,158.47 118.56,158.47 118.56,290.76 
			200.45,290.76 		"/>
		<g>
			<g>
				<line class="st3" x1="152.76" y1="371.01" x2="152.76" y2="369.41"/>
				<line class="st4" x1="152.76" y1="366.31" x2="152.76" y2="318.22"/>
				<polyline class="st3" points="152.76,316.67 152.76,315.07 151.16,315.07 				"/>
				<line class="st5" x1="148.09" y1="315.07" x2="88.33" y2="315.07"/>
				<polyline class="st3" points="86.8,315.07 85.2,315.07 85.2,313.47 				"/>
				<line class="st6" x1="85.2" y1="310.27" x2="85.2" y2="241.47"/>
				<polyline class="st3" points="85.2,239.87 85.2,238.28 86.8,238.28 				"/>
				<line class="st7" x1="90.03" y1="238.28" x2="166.01" y2="238.28"/>
				<polyline class="st3" points="167.62,238.28 169.22,238.28 169.22,236.68 				"/>
				<line class="st8" x1="169.22" y1="233.53" x2="169.22" y2="58.62"/>
				<polyline class="st3" points="169.22,57.05 169.22,55.45 170.82,55.45 				"/>
				<line class="st9" x1="174.08" y1="55.45" x2="309.36" y2="55.45"/>
				<polyline class="st3" points="310.99,55.45 312.58,55.45 312.58,53.85 				"/>
				<line class="st10" x1="312.58" y1="50.74" x2="312.58" y2="8.75"/>
				<polyline class="st3" points="312.58,7.2 312.58,5.6 314.18,5.6 				"/>
				<line class="st11" x1="317.43" y1="5.6" x2="380.65" y2="5.6"/>
				<polyline class="st3" points="382.27,5.6 383.87,5.6 383.87,7.2 				"/>
				<line class="st12" x1="383.87" y1="10.46" x2="383.87" y2="54.55"/>
				<polyline class="st3" points="383.87,56.18 383.87,57.78 385.47,57.78 				"/>
				<line class="st13" x1="388.74" y1="57.78" x2="452.56" y2="57.78"/>
				<polyline class="st3" points="454.19,57.78 455.79,57.78 455.79,59.38 				"/>
				<line class="st14" x1="455.79" y1="62.47" x2="455.79" y2="73.28"/>
				<polyline class="st3" points="455.79,74.82 455.79,76.42 457.39,76.42 				"/>
				<line class="st15" x1="460.61" y1="76.42" x2="575.01" y2="76.42"/>
				<polyline class="st3" points="576.62,76.42 578.22,76.42 578.22,78.02 				"/>
				<line class="st16" x1="578.22" y1="81.11" x2="578.22" y2="104.25"/>
				<polyline class="st3" points="578.22,105.8 578.22,107.4 579.82,107.4 				"/>
				<line class="st17" x1="583.14" y1="107.4" x2="641.3" y2="107.4"/>
				<polyline class="st3" points="642.96,107.4 644.56,107.4 644.56,108.99 				"/>
				<line class="st18" x1="644.56" y1="112.08" x2="644.56" y2="172.35"/>
				<polyline class="st3" points="644.56,173.9 644.56,175.5 642.96,175.5 				"/>
				<line class="st19" x1="639.77" y1="175.5" x2="596.65" y2="175.5"/>
				<polyline class="st3" points="595.06,175.5 593.46,175.5 593.46,177.1 				"/>
				<line class="st20" x1="593.46" y1="180.26" x2="593.46" y2="336.89"/>
				<line class="st3" x1="593.46" y1="338.47" x2="593.46" y2="340.07"/>
			</g>
		</g>
		<g>
			<rect x="123.4" y="468.06" class="st21" width="512.7" height="20.45"/>
			<polygon class="st22" points="570.97,395.66 188.52,395.66 123.4,468.06 636.1,468.06 			"/>
		</g>
		<ellipse class="st23" cx="377.38" cy="433.22" rx="189.2" ry="18.86"/>
		<g>
			<g>
				<g>
					<polygon class="st24" points="339.48,367.04 331.32,427.3 428.17,427.3 419,367.04 					"/>
					<rect x="297.68" y="435.98" class="st24" width="164.13" height="4.34"/>
					<polygon class="st21" points="331.32,427.3 297.68,435.98 461.81,435.98 428.17,427.3 					"/>
				</g>
				<g>
					<path class="st25" d="M568.95,336.02h-378.4V123.03c0-7.01,5.68-12.68,12.68-12.68h353.03c7.01,0,12.68,5.68,12.68,12.68
						V336.02z"/>
					<path class="st21" d="M556.32,374.64H203.18c-6.98,0-12.63-5.65-12.63-12.63v-25.99h378.4v25.99
						C568.95,368.99,563.29,374.64,556.32,374.64z"/>
					<rect x="204.51" y="123.37" class="st26" width="350.48" height="198.67"/>
					<path class="st25" d="M387.14,353.8c0,4.35-3.31,7.87-7.39,7.87c-4.08,0-7.39-3.52-7.39-7.87s3.31-7.87,7.39-7.87
						C383.83,345.93,387.14,349.45,387.14,353.8z"/>
				</g>
				<g>
					<g>
						<rect x="259.76" y="146.05" class="st21" width="124.11" height="154.27"/>
						<rect x="277.7" y="167.08" class="st27" width="88.23" height="8.41"/>
						<rect x="277.7" y="182.51" class="st27" width="88.23" height="8.41"/>
						<rect x="277.7" y="197.94" class="st27" width="88.23" height="8.41"/>
						<rect x="277.7" y="213.36" class="st27" width="88.23" height="8.41"/>
						<rect x="277.7" y="228.79" class="st27" width="88.23" height="8.41"/>
						<rect x="277.7" y="244.22" class="st27" width="88.23" height="8.41"/>
						<rect x="277.7" y="259.64" class="st27" width="88.23" height="8.41"/>
						<rect x="277.7" y="275.07" class="st27" width="88.23" height="8.41"/>
					</g>
					<g>
						<path class="st25" d="M467.43,202v-13.44h-7.86c-0.66-3.06-1.77-5.93-3.26-8.53l5.6-5.96l-8.93-9.51l-5.56,5.92
							c-2.43-1.61-5.11-2.83-7.97-3.57v-8.44h-12.62v8.37c-2.87,0.71-5.57,1.89-8.01,3.47l-5.6-5.96l-8.93,9.51l5.55,5.91
							c-1.52,2.59-2.66,5.44-3.35,8.49h-7.92v13.44h7.86c0.66,3.06,1.77,5.93,3.26,8.53l-5.6,5.96l8.93,9.51l5.56-5.92
							c2.43,1.62,5.11,2.83,7.97,3.57v8.44h12.62v-8.37c2.87-0.71,5.57-1.89,8.01-3.47l5.6,5.96l8.93-9.51l-5.55-5.92
							c1.52-2.59,2.66-5.44,3.35-8.49H467.43z M433,208.05c-6.7,0-12.13-5.78-12.13-12.92c0-7.14,5.43-12.92,12.13-12.92
							c6.7,0,12.13,5.78,12.13,12.92C445.14,202.27,439.7,208.05,433,208.05z"/>
						<path class="st25" d="M514.51,243.23v-10.58h-6.18c-0.52-2.41-1.4-4.67-2.57-6.72l4.41-4.69l-7.03-7.48l-4.37,4.66
							c-1.91-1.27-4.03-2.23-6.28-2.81v-6.64h-9.94v6.59c-2.26,0.56-4.38,1.49-6.31,2.74l-4.41-4.69l-7.03,7.48l4.37,4.66
							c-1.19,2.04-2.09,4.29-2.64,6.69h-6.24v10.58h6.18c0.52,2.41,1.4,4.67,2.57,6.72l-4.41,4.69l7.03,7.48l4.37-4.66
							c1.91,1.27,4.02,2.23,6.28,2.81v6.64h9.94v-6.59c2.26-0.56,4.38-1.49,6.31-2.74l4.41,4.69l7.03-7.48l-4.37-4.66
							c1.19-2.04,2.09-4.29,2.64-6.68H514.51z M487.41,247.99c-5.28,0-9.55-4.55-9.55-10.17c0-5.62,4.28-10.17,9.55-10.17
							c5.27,0,9.55,4.55,9.55,10.17C496.96,243.44,492.69,247.99,487.41,247.99z"/>
						<path class="st25" d="M460.11,267.72v-7.51h-4.39c-0.37-1.71-0.99-3.31-1.82-4.77l3.13-3.33l-4.99-5.31l-3.1,3.3
							c-1.36-0.9-2.86-1.58-4.45-1.99v-4.71h-7.05v4.67c-1.6,0.39-3.11,1.05-4.48,1.94l-3.13-3.33l-4.99,5.31l3.1,3.3
							c-0.85,1.45-1.49,3.04-1.87,4.74h-4.42v7.51h4.39c0.37,1.71,0.99,3.31,1.82,4.77l-3.13,3.33l4.99,5.31l3.1-3.3
							c1.36,0.9,2.86,1.58,4.45,2v4.71h7.05v-4.67c1.6-0.39,3.11-1.05,4.48-1.94l3.13,3.33l4.99-5.31l-3.1-3.3
							c0.85-1.45,1.49-3.04,1.87-4.74H460.11z M440.88,271.1c-3.74,0-6.78-3.23-6.78-7.22c0-3.99,3.03-7.22,6.78-7.22
							c3.74,0,6.78,3.23,6.78,7.22C447.66,267.87,444.62,271.1,440.88,271.1z"/>
					</g>
				</g>
			</g>
			<polygon class="st28" points="370.83,123.37 295.48,322.04 337.19,322.04 411.86,123.37 			"/>
			<polygon class="st28" points="437.81,123.37 367.46,322.04 384.22,322.04 455.79,123.37 			"/>
		</g>
		<g>
			<g>
				<path class="st24" d="M500.72,81.44c-0.43,0-0.86-0.1-1.27-0.31c-2.63-1.37-5.22-0.07-5.32-0.01c-1.43,0.73-3.16,0.12-3.87-1.4
					c-0.71-1.51-0.15-3.34,1.26-4.11c0.21-0.11,5.2-2.76,10.47-0.03c1.44,0.75,2.03,2.59,1.33,4.12
					C502.82,80.8,501.79,81.44,500.72,81.44z"/>
			</g>
			<g>
				<path class="st24" d="M507.74,73.07c-0.57,0-1.15-0.18-1.66-0.56c-9.31-6.95-18.22-0.11-18.31-0.04
					c-1.29,1.01-3.1,0.72-4.05-0.65c-0.95-1.37-0.67-3.3,0.61-4.31c4.24-3.33,14.93-7.61,25.07-0.04c1.31,0.98,1.63,2.9,0.71,4.29
					C509.55,72.61,508.66,73.07,507.74,73.07z"/>
			</g>
			<g>
				<path class="st24" d="M514.77,65.25c-0.62,0-1.24-0.21-1.77-0.64c-17.24-14.19-31.3-0.76-31.89-0.18
					c-1.17,1.15-3,1.08-4.09-0.17c-1.08-1.24-1.02-3.19,0.14-4.35c0.18-0.18,18.18-17.64,39.37-0.19c1.27,1.04,1.5,2.98,0.52,4.32
					C516.49,64.84,515.64,65.25,514.77,65.25z"/>
			</g>
		</g>
		<g>
			<g>
				<ellipse class="st29" cx="578.22" cy="107.4" rx="44.96" ry="47.88"/>
				<path class="st30" d="M543.95,76.42c-6.66,8.35-10.69,19.16-10.69,30.97c0,26.44,20.13,47.88,44.96,47.88
					c12.12,0,23.11-5.12,31.2-13.42C557.92,134.11,546.22,98.18,543.95,76.42z"/>
			</g>
			<text transform="matrix(0.939 0 0 1 545.6523 115.6748)" class="st31 st32 st33">CMS</text>
		</g>
		<g id="XMLID_9074_">
			<path id="XMLID_9075_" class="st21" d="M610.93,403.8l3.32,0.01c18.57-0.83,33.09-16.94,33.09-36.76
				c0-19.81-14.52-35.93-33.09-36.76l-3.29-0.01c-0.01,0.01-0.02,0.01-0.03,0.02c-18.35,1.04-32.71,17.14-32.71,36.75
				C578.22,386.65,592.58,402.76,610.93,403.8z M590.06,390.84c2.19-1.7,4.56-3.15,7.07-4.33c2.38,5.29,5.68,9.96,9.84,13.91
				C600.58,399.17,594.65,395.81,590.06,390.84z M611.44,400.66c-5.06-4.05-9.13-9.28-11.83-15.21c3.79-1.47,7.76-2.31,11.83-2.5
				V400.66z M611.44,380.1c-4.44,0.2-8.78,1.12-12.91,2.74c-1.57-4.18-2.5-8.6-2.76-13.16l15.67-0.01V380.1z M611.44,366.83
				l-15.75,0.01c0.02-4.67,0.74-9.25,2.15-13.61c4.34,1.82,8.91,2.85,13.6,3.07V366.83z M618.13,400.52
				c4.35-4.11,7.77-8.98,10.17-14.52c2.69,1.16,5.24,2.64,7.6,4.39C631.14,395.74,624.9,399.29,618.13,400.52z M637.67,388.24
				c-2.58-1.95-5.38-3.58-8.34-4.86c1.58-4.36,2.51-8.97,2.76-13.72l12.47-0.01C644.08,376.48,641.7,382.89,637.67,388.24z
				 M638.67,347.26c3.88,5.73,5.95,12.48,5.99,19.55l-12.49,0.01c-0.02-4.85-0.76-9.61-2.19-14.16
				C633.06,351.24,635.98,349.43,638.67,347.26z M637.02,345.02c-2.47,1.98-5.14,3.65-7.96,4.96c-2.39-6.23-6.14-11.86-10.93-16.4
				C625.49,334.91,632.13,338.92,637.02,345.02z M614.11,333.74c5.57,4.56,9.86,10.51,12.46,17.3c-4.01,1.53-8.19,2.35-12.46,2.44
				V333.74z M614.11,356.33c4.57-0.1,9.07-0.98,13.38-2.62c1.31,4.22,1.98,8.63,2.01,13.11l-15.39,0.01V356.33z M614.11,369.67
				l15.3-0.01c-0.25,4.4-1.12,8.68-2.59,12.73c-4.09-1.45-8.36-2.23-12.71-2.32V369.67z M614.11,382.91
				c3.99,0.09,7.91,0.79,11.66,2.11c-2.63,5.95-6.64,11.23-11.66,15.34V382.91z M611.44,333.44v20c-4.35-0.21-8.6-1.18-12.64-2.88
				C601.48,343.83,605.83,337.93,611.44,333.44z M606.97,333.67c-4.6,4.38-8.24,9.79-10.62,15.76c-2.63-1.33-5.12-2.98-7.41-4.9
				C593.68,338.85,600.02,335.04,606.97,333.67z M587.25,346.74c2.52,2.11,5.25,3.91,8.13,5.35c-1.54,4.72-2.34,9.67-2.36,14.75
				l-12.13,0.01C580.94,359.53,583.13,352.6,587.25,346.74z M581,369.69l12.11-0.01c0.26,4.93,1.25,9.71,2.95,14.23
				c-2.77,1.3-5.38,2.92-7.8,4.81C584.01,383.28,581.5,376.72,581,369.69z"/>
		</g>
		<g>
			<rect x="130.5" y="223.18" class="st21" width="98.02" height="22.02"/>
			<g>
				<defs>
					<path id="SVGID_1_" d="M147.6,233c0,3.76-2.86,6.81-6.39,6.81c-3.53,0-6.39-3.05-6.39-6.81c0-3.76,2.86-6.81,6.39-6.81
						C144.74,226.19,147.6,229.24,147.6,233z"/>
				</defs>
				<clipPath id="SVGID_2_">
					<use xlink:href="#SVGID_1_"  style="overflow:visible;"/>
				</clipPath>
				<path class="st34" d="M147.6,233c0,3.76-2.86,6.81-6.39,6.81c-3.53,0-6.39-3.05-6.39-6.81c0-3.76,2.86-6.81,6.39-6.81
					C144.74,226.19,147.6,229.24,147.6,233z"/>
				<g class="st35">
					<path class="st21" d="M143.44,230.51c0,1.31-1,2.37-2.23,2.37c-1.23,0-2.23-1.06-2.23-2.37s1-2.37,2.23-2.37
						C142.44,228.14,143.44,229.2,143.44,230.51z"/>
					<path class="st21" d="M145.63,239.9h-8.83v-3.86c0-1.65,1.34-2.99,2.99-2.99h2.85c1.65,0,2.99,1.34,2.99,2.99V239.9z"/>
				</g>
			</g>
			<rect x="150.73" y="228.79" class="st36" width="65.24" height="1.05"/>
			<rect x="150.73" y="231.95" class="st36" width="65.24" height="1.05"/>
			<rect x="150.73" y="235.11" class="st36" width="65.24" height="1.05"/>
			<rect x="150.73" y="238.27" class="st36" width="65.24" height="1.05"/>
		</g>
		<g>
			<rect x="130.5" y="252.84" class="st21" width="98.02" height="22.02"/>
			<g>
				<defs>
					<path id="SVGID_3_" d="M147.6,262.66c0,3.76-2.86,6.81-6.39,6.81c-3.53,0-6.39-3.05-6.39-6.81c0-3.76,2.86-6.81,6.39-6.81
						C144.74,255.85,147.6,258.9,147.6,262.66z"/>
				</defs>
				<clipPath id="SVGID_4_">
					<use xlink:href="#SVGID_3_"  style="overflow:visible;"/>
				</clipPath>
				<path class="st37" d="M147.6,262.66c0,3.76-2.86,6.81-6.39,6.81c-3.53,0-6.39-3.05-6.39-6.81c0-3.76,2.86-6.81,6.39-6.81
					C144.74,255.85,147.6,258.9,147.6,262.66z"/>
				<g class="st38">
					<path class="st21" d="M143.44,260.17c0,1.31-1,2.37-2.23,2.37c-1.23,0-2.23-1.06-2.23-2.37s1-2.37,2.23-2.37
						C142.44,257.8,143.44,258.86,143.44,260.17z"/>
					<path class="st21" d="M145.63,269.56h-8.83v-3.86c0-1.65,1.34-2.99,2.99-2.99h2.85c1.65,0,2.99,1.34,2.99,2.99V269.56z"/>
				</g>
			</g>
			<rect x="150.73" y="258.45" class="st36" width="65.24" height="1.05"/>
			<rect x="150.73" y="261.61" class="st36" width="65.24" height="1.05"/>
			<rect x="150.73" y="264.77" class="st36" width="65.24" height="1.05"/>
			<rect x="150.73" y="267.93" class="st36" width="65.24" height="1.05"/>
		</g>
		<g>
			<path class="st36" d="M268.58,72.79c-0.3,0-0.61,0.01-0.91,0.02c0.59-2.58,0.91-5.28,0.91-8.05c0-18.81-14.32-34.06-31.99-34.06
				c-7.44,0-14.28,2.71-19.72,7.25c-5.11-11.58-16.15-19.61-28.96-19.61c-15.31,0-28.11,11.46-31.24,26.77
				c-3.31-1.24-6.87-1.92-10.58-1.92c-16.24,0-29.65,12.9-31.71,29.6c-0.09,0-0.19-0.01-0.28-0.01c-9.11,0-17.06,5.31-21.26,13.19
				c-1.11,2.08,0.3,4.68,2.55,4.68h41.93h22.05h63.97h22.03h41.93c2.25,0,3.66-2.59,2.55-4.68
				C285.64,78.1,277.69,72.79,268.58,72.79z"/>
			<g>
				<polygon class="st21" points="190.84,97.66 169.22,57.78 147.6,97.66 162.01,97.66 162.01,147.45 176.43,147.45 176.43,97.66 
									"/>
				<polygon class="st29" points="191.84,107.57 213.46,147.45 235.07,107.57 220.67,107.57 220.67,57.78 206.24,57.78 
					206.24,107.57 				"/>
			</g>
		</g>
		<g class="st39">
			<rect x="531.34" y="193.4" class="st21" width="148.2" height="85.61"/>
			<rect x="538.06" y="202.11" class="st27" width="123.44" height="6.16"/>
			<rect x="538.06" y="212.11" class="st27" width="86.3" height="6.16"/>
			<rect x="538.06" y="222.12" class="st27" width="105.61" height="6.16"/>
			<rect x="538.06" y="232.12" class="st27" width="123.44" height="6.16"/>
			<rect x="538.06" y="242.12" class="st27" width="113.91" height="6.16"/>
			<rect x="538.06" y="252.12" class="st27" width="101.23" height="6.16"/>
			<rect x="538.06" y="262.12" class="st27" width="116.34" height="6.16"/>
		</g>
		<g>
			<rect x="105.07" y="345.08" class="st29" width="95.38" height="59.13"/>
			<polygon class="st40" points="105.07,404.21 152.76,371.01 200.45,404.21 			"/>
			<polygon class="st30" points="105.07,345.08 152.76,385.85 200.45,345.08 			"/>
		</g>
		<g>
			<g>
				<path class="st25" d="M386.75,24.89h-25.95c-3.13,0-5.67,2.7-5.67,6.04v53.71c0,3.33,2.54,6.04,5.67,6.04h25.95
					c3.13,0,5.67-2.7,5.67-6.04V30.93C392.42,27.59,389.88,24.89,386.75,24.89z"/>
				<g>
					<defs>
						<path id="SVGID_5_" d="M384.6,28h-21.65c-2.61,0-4.73,2.26-4.73,5.04v44.81c0,2.78,2.12,5.04,4.73,5.04h21.65
							c2.61,0,4.73-2.26,4.73-5.04V33.04C389.33,30.26,387.22,28,384.6,28z"/>
					</defs>
					<clipPath id="SVGID_6_">
						<use xlink:href="#SVGID_5_"  style="overflow:visible;"/>
					</clipPath>
					<path class="st41" d="M384.6,28h-21.65c-2.61,0-4.73,2.26-4.73,5.04v44.81c0,2.78,2.12,5.04,4.73,5.04h21.65
						c2.61,0,4.73-2.26,4.73-5.04V33.04C389.33,30.26,387.22,28,384.6,28z"/>
					<polygon class="st42" points="351.85,70.04 386.94,19.83 395.35,19.83 351.85,82.89 					"/>
					<polygon class="st42" points="355.14,89.9 396.81,28 396.81,33.84 355.14,96.91 					"/>
				</g>
				<path class="st36" d="M375.61,86.39c0,1.08-0.82,1.95-1.83,1.95c-1.01,0-1.83-0.87-1.83-1.95c0-1.07,0.82-1.95,1.83-1.95
					C374.79,84.45,375.61,85.32,375.61,86.39z"/>
			</g>
			<g>
				<rect x="384.27" y="39.88" class="st36" width="50.08" height="40.53"/>
				<g>
					<polygon class="st24" points="399.78,71.91 389,60.43 399.92,48.79 401.76,50.74 392.66,60.43 401.61,69.96 					"/>
				</g>
				<g>
					<polygon class="st24" points="418.29,71.91 416.45,69.96 425.55,60.27 416.6,50.74 418.43,48.79 429.21,60.27 					"/>
				</g>
				<g>
					<polygon class="st24" points="406.36,71.46 403.96,70.4 411.85,50.12 414.25,51.18 					"/>
				</g>
				<rect x="384.27" y="35.16" class="st24" width="50.08" height="4.72"/>
			</g>
		</g>
	</g>
</g>
</svg>
